<mxfile host="Electron" agent="Mozilla/5.0 (Windows NT 10.0; Win64; x64) AppleWebKit/537.36 (KHTML, like Gecko) draw.io/24.7.17 Chrome/128.0.6613.36 Electron/32.0.1 Safari/537.36" version="24.7.17">
  <diagram name="Страница — 1" id="rHHciGTD3H5zhZr75tDO">
    <mxGraphModel dx="1036" dy="606" grid="0" gridSize="10" guides="1" tooltips="1" connect="1" arrows="1" fold="1" page="1" pageScale="1" pageWidth="827" pageHeight="1169" background="#FFFFFF" math="0" shadow="0">
      <root>
        <mxCell id="0" />
        <mxCell id="1" parent="0" />
        <mxCell id="PueukR5PK67V6NeAx5OQ-23" style="edgeStyle=orthogonalEdgeStyle;rounded=0;hachureGap=4;orthogonalLoop=1;jettySize=auto;html=1;entryX=0.5;entryY=0;entryDx=0;entryDy=0;fontFamily=Architects Daughter;fontSource=https%3A%2F%2Ffonts.googleapis.com%2Fcss%3Ffamily%3DArchitects%2BDaughter;strokeColor=#000000;" parent="1" source="oQ1ucoxECX1uvSjtPKPf-1" target="oQ1ucoxECX1uvSjtPKPf-3" edge="1">
          <mxGeometry relative="1" as="geometry" />
        </mxCell>
        <mxCell id="oQ1ucoxECX1uvSjtPKPf-1" value="&lt;h1&gt;&lt;font face=&quot;Helvetica&quot;&gt;API&lt;/font&gt;&lt;/h1&gt;" style="whiteSpace=wrap;html=1;aspect=fixed;hachureGap=4;fontFamily=Architects Daughter;fontSource=https%3A%2F%2Ffonts.googleapis.com%2Fcss%3Ffamily%3DArchitects%2BDaughter;fillColor=none;strokeColor=#666666;fontColor=#000000;" parent="1" vertex="1">
          <mxGeometry x="360" y="130" width="80" height="80" as="geometry" />
        </mxCell>
        <mxCell id="PueukR5PK67V6NeAx5OQ-24" style="edgeStyle=orthogonalEdgeStyle;shape=connector;rounded=0;hachureGap=4;orthogonalLoop=1;jettySize=auto;html=1;exitX=0.5;exitY=0;exitDx=0;exitDy=0;entryX=0.5;entryY=1;entryDx=0;entryDy=0;strokeColor=#000000;align=center;verticalAlign=middle;fontFamily=Architects Daughter;fontSource=https%3A%2F%2Ffonts.googleapis.com%2Fcss%3Ffamily%3DArchitects%2BDaughter;fontSize=11;fontColor=default;labelBackgroundColor=default;endArrow=classic;" parent="1" source="oQ1ucoxECX1uvSjtPKPf-3" target="oQ1ucoxECX1uvSjtPKPf-1" edge="1">
          <mxGeometry relative="1" as="geometry" />
        </mxCell>
        <mxCell id="PueukR5PK67V6NeAx5OQ-25" style="edgeStyle=orthogonalEdgeStyle;shape=connector;rounded=0;hachureGap=4;orthogonalLoop=1;jettySize=auto;html=1;exitX=0.5;exitY=1;exitDx=0;exitDy=0;strokeColor=#000000;align=center;verticalAlign=middle;fontFamily=Architects Daughter;fontSource=https%3A%2F%2Ffonts.googleapis.com%2Fcss%3Ffamily%3DArchitects%2BDaughter;fontSize=11;fontColor=default;labelBackgroundColor=default;endArrow=classic;" parent="1" source="oQ1ucoxECX1uvSjtPKPf-3" target="b3TvhJyxjg373JxtOVZY-1" edge="1">
          <mxGeometry relative="1" as="geometry">
            <mxPoint x="400" y="380" as="targetPoint" />
          </mxGeometry>
        </mxCell>
        <mxCell id="b3TvhJyxjg373JxtOVZY-4" style="edgeStyle=orthogonalEdgeStyle;shape=connector;rounded=0;hachureGap=4;orthogonalLoop=1;jettySize=auto;html=1;exitX=0.5;exitY=1;exitDx=0;exitDy=0;entryX=0.5;entryY=0;entryDx=0;entryDy=0;strokeColor=#000000;align=center;verticalAlign=middle;fontFamily=Architects Daughter;fontSource=https%3A%2F%2Ffonts.googleapis.com%2Fcss%3Ffamily%3DArchitects%2BDaughter;fontSize=11;fontColor=default;labelBackgroundColor=default;endArrow=classic;" edge="1" parent="1" source="oQ1ucoxECX1uvSjtPKPf-3" target="b3TvhJyxjg373JxtOVZY-2">
          <mxGeometry relative="1" as="geometry" />
        </mxCell>
        <mxCell id="oQ1ucoxECX1uvSjtPKPf-3" value="&lt;h2&gt;&lt;div style=&quot;&quot;&gt;&lt;pre style=&quot;&quot;&gt;&lt;font face=&quot;Helvetica&quot; style=&quot;&quot; color=&quot;#000000&quot;&gt;ArtifactServiceImpl&lt;/font&gt;&lt;/pre&gt;&lt;/div&gt;&lt;/h2&gt;" style="rounded=0;whiteSpace=wrap;html=1;hachureGap=4;fontFamily=Architects Daughter;fontSource=https%3A%2F%2Ffonts.googleapis.com%2Fcss%3Ffamily%3DArchitects%2BDaughter;fillColor=none;strokeColor=#666666;fontColor=#333333;" parent="1" vertex="1">
          <mxGeometry x="310" y="260" width="180" height="60" as="geometry" />
        </mxCell>
        <mxCell id="b3TvhJyxjg373JxtOVZY-8" style="edgeStyle=orthogonalEdgeStyle;shape=connector;rounded=0;hachureGap=4;orthogonalLoop=1;jettySize=auto;html=1;exitX=0.25;exitY=0;exitDx=0;exitDy=0;entryX=0;entryY=0.5;entryDx=0;entryDy=0;strokeColor=#000000;align=center;verticalAlign=middle;fontFamily=Architects Daughter;fontSource=https%3A%2F%2Ffonts.googleapis.com%2Fcss%3Ffamily%3DArchitects%2BDaughter;fontSize=11;fontColor=default;labelBackgroundColor=default;endArrow=classic;" edge="1" parent="1" source="b3TvhJyxjg373JxtOVZY-1" target="oQ1ucoxECX1uvSjtPKPf-3">
          <mxGeometry relative="1" as="geometry" />
        </mxCell>
        <mxCell id="b3TvhJyxjg373JxtOVZY-1" value="&lt;h2&gt;&lt;div style=&quot;&quot;&gt;&lt;pre style=&quot;&quot;&gt;&lt;font face=&quot;Helvetica&quot; style=&quot;&quot; color=&quot;#000000&quot;&gt;Data Proccessor&lt;br/&gt;module&lt;/font&gt;&lt;/pre&gt;&lt;/div&gt;&lt;/h2&gt;" style="rounded=0;whiteSpace=wrap;html=1;hachureGap=4;fontFamily=Architects Daughter;fontSource=https%3A%2F%2Ffonts.googleapis.com%2Fcss%3Ffamily%3DArchitects%2BDaughter;fillColor=none;strokeColor=#666666;fontColor=#333333;" vertex="1" parent="1">
          <mxGeometry x="59" y="391" width="180" height="60" as="geometry" />
        </mxCell>
        <mxCell id="b3TvhJyxjg373JxtOVZY-7" style="edgeStyle=orthogonalEdgeStyle;shape=connector;rounded=0;hachureGap=4;orthogonalLoop=1;jettySize=auto;html=1;exitX=0.75;exitY=0;exitDx=0;exitDy=0;entryX=1;entryY=0.5;entryDx=0;entryDy=0;strokeColor=#000000;align=center;verticalAlign=middle;fontFamily=Architects Daughter;fontSource=https%3A%2F%2Ffonts.googleapis.com%2Fcss%3Ffamily%3DArchitects%2BDaughter;fontSize=11;fontColor=default;labelBackgroundColor=default;endArrow=classic;" edge="1" parent="1" source="b3TvhJyxjg373JxtOVZY-2" target="oQ1ucoxECX1uvSjtPKPf-3">
          <mxGeometry relative="1" as="geometry" />
        </mxCell>
        <mxCell id="b3TvhJyxjg373JxtOVZY-2" value="&lt;h2&gt;&lt;div style=&quot;&quot;&gt;&lt;pre style=&quot;&quot;&gt;&lt;font face=&quot;Helvetica&quot; style=&quot;&quot; color=&quot;#000000&quot;&gt;Artifact Proccessor&lt;br&gt;module&lt;/font&gt;&lt;/pre&gt;&lt;/div&gt;&lt;/h2&gt;" style="rounded=0;whiteSpace=wrap;html=1;hachureGap=4;fontFamily=Architects Daughter;fontSource=https%3A%2F%2Ffonts.googleapis.com%2Fcss%3Ffamily%3DArchitects%2BDaughter;fillColor=none;strokeColor=#666666;fontColor=#333333;" vertex="1" parent="1">
          <mxGeometry x="558" y="391" width="180" height="60" as="geometry" />
        </mxCell>
      </root>
    </mxGraphModel>
  </diagram>
</mxfile>
